<svg width="24" height="24" fill="none" xmlns="http://www.w3.org/2000/svg"><path fill-rule="evenodd" clip-rule="evenodd" d="M17 3.5a.5.5 0 00-.5-.5H14c-2.762 0-5 2.015-5 4.5v2.7H6.5a.5.5 0 00-.5.5v2.6a.5.5 0 00.5.5H9v6.7a.5.5 0 00.5.5h3a.5.5 0 00.5-.5v-6.7h2.619c.225 0 .422-.15.483-.366l.721-2.6a.5.5 0 00-.481-.634H13V7.5c0-.497.447-.9 1-.9h2.5a.5.5 0 00.5-.5V3.5z" fill="#231F20"/><mask id="a" maskUnits="userSpaceOnUse" x="6" y="3" width="11" height="18"><path fill-rule="evenodd" clip-rule="evenodd" d="M17 3.5a.5.5 0 00-.5-.5H14c-2.762 0-5 2.015-5 4.5v2.7H6.5a.5.5 0 00-.5.5v2.6a.5.5 0 00.5.5H9v6.7a.5.5 0 00.5.5h3a.5.5 0 00.5-.5v-6.7h2.619c.225 0 .422-.15.483-.366l.721-2.6a.5.5 0 00-.481-.634H13V7.5c0-.497.447-.9 1-.9h2.5a.5.5 0 00.5-.5V3.5z" fill="#fff"/></mask><g mask="url(#a)"><path fill="#E2B024" d="M0 0h24v24H0z"/></g></svg>