<svg width="24" height="24" fill="none" xmlns="http://www.w3.org/2000/svg"><path fill-rule="evenodd" clip-rule="evenodd" d="M17.495 13.98c-.666 2.142-2.326 3.625-4.535 3.953-3.37.498-6.68-2.057-6.943-5.457a6.001 6.001 0 018.253-6.032.503.503 0 00.642-.216l1.435-2.647a.504.504 0 00-.224-.697A9.976 9.976 0 0012.004 2c-5.622 0-10.16 4.636-10 10.293.147 5.162 4.407 9.48 9.564 9.698 5.546.235 10.146-4.046 10.425-9.468a84.47 84.47 0 00.003-2.027.497.497 0 00-.5-.495h-8.999a.5.5 0 00-.5.5v2.98a.5.5 0 00.5.5h4.998z" fill="#231F20"/><mask id="a" maskUnits="userSpaceOnUse" x="2" y="2" width="21" height="21"><path fill-rule="evenodd" clip-rule="evenodd" d="M17.495 13.98c-.666 2.142-2.326 3.625-4.535 3.953-3.37.498-6.68-2.057-6.943-5.457a6.001 6.001 0 018.253-6.032.503.503 0 00.642-.216l1.435-2.647a.504.504 0 00-.224-.697A9.976 9.976 0 0012.004 2c-5.622 0-10.16 4.636-10 10.293.147 5.162 4.407 9.48 9.564 9.698 5.546.235 10.146-4.046 10.425-9.468a84.47 84.47 0 00.003-2.027.497.497 0 00-.5-.495h-8.999a.5.5 0 00-.5.5v2.98a.5.5 0 00.5.5h4.998z" fill="#fff"/></mask><g mask="url(#a)"><path fill="#E2B024" d="M0 0h24v24H0z"/></g></svg>