<svg width="24" height="24" fill="none" xmlns="http://www.w3.org/2000/svg"><path fill-rule="evenodd" clip-rule="evenodd" d="M8.077 20c7.246 0 11.438-5.626 11.438-10.965 0-.147 1.03-1.03 1.47-2.874a.441.441 0 00-.616-.512c-.88.404-1.773.084-2.161-.376a3.874 3.874 0 00-5.574-.175 4.112 4.112 0 00-1.14 3.86c-3.351.24-5.652-1.349-7.544-3.526-.244-.283-.697-.134-.748.24-.28 2.082-.368 7.144 4.648 10.051-.871 1.252-2.576 1.991-4.474 2.308-.42.071-.52.653-.136.841a10.923 10.923 0 004.837 1.125" fill="#231F20"/><mask id="a" maskUnits="userSpaceOnUse" x="3" y="4" width="18" height="17"><path fill-rule="evenodd" clip-rule="evenodd" d="M8.077 20c7.246 0 11.438-5.626 11.438-10.965 0-.147 1.03-1.03 1.47-2.874a.441.441 0 00-.616-.512c-.88.404-1.773.084-2.161-.376a3.874 3.874 0 00-5.574-.175 4.112 4.112 0 00-1.14 3.86c-3.351.24-5.652-1.349-7.544-3.526-.244-.283-.697-.134-.748.24-.28 2.082-.368 7.144 4.648 10.051-.871 1.252-2.576 1.991-4.474 2.308-.42.071-.52.653-.136.841a10.923 10.923 0 004.837 1.125" fill="#fff"/></mask><g mask="url(#a)"><path fill="#E2B024" d="M0 0h24v24H0z"/></g></svg>